<mxfile host="app.diagrams.net" agent="Mozilla/5.0 (Windows NT 10.0; Win64; x64) AppleWebKit/537.36 (KHTML, like Gecko) Chrome/130.0.0.0 Safari/537.36 Edg/130.0.0.0" version="24.7.7">
  <diagram name="Page-1" id="lNETlONyEBaf46VNZ52v">
    <mxGraphModel dx="1789" dy="994" grid="1" gridSize="10" guides="1" tooltips="1" connect="1" arrows="1" fold="1" page="1" pageScale="1" pageWidth="850" pageHeight="1100" math="0" shadow="0">
      <root>
        <mxCell id="0" />
        <mxCell id="1" parent="0" />
        <mxCell id="774_Vz0MPOHN9tMvmc2I-1" value="5" style="rounded=1;whiteSpace=wrap;html=1;" vertex="1" parent="1">
          <mxGeometry x="110" y="80" width="50" height="40" as="geometry" />
        </mxCell>
        <mxCell id="774_Vz0MPOHN9tMvmc2I-2" value="3" style="rounded=1;whiteSpace=wrap;html=1;" vertex="1" parent="1">
          <mxGeometry x="160" y="80" width="50" height="40" as="geometry" />
        </mxCell>
        <mxCell id="774_Vz0MPOHN9tMvmc2I-3" value="2" style="rounded=1;whiteSpace=wrap;html=1;" vertex="1" parent="1">
          <mxGeometry x="210" y="80" width="50" height="40" as="geometry" />
        </mxCell>
        <mxCell id="774_Vz0MPOHN9tMvmc2I-4" value="6" style="rounded=1;whiteSpace=wrap;html=1;" vertex="1" parent="1">
          <mxGeometry x="260" y="80" width="50" height="40" as="geometry" />
        </mxCell>
        <mxCell id="774_Vz0MPOHN9tMvmc2I-5" value="1" style="rounded=1;whiteSpace=wrap;html=1;" vertex="1" parent="1">
          <mxGeometry x="310" y="80" width="50" height="40" as="geometry" />
        </mxCell>
        <mxCell id="774_Vz0MPOHN9tMvmc2I-8" value="5" style="rounded=1;whiteSpace=wrap;html=1;" vertex="1" parent="1">
          <mxGeometry x="60" y="180" width="50" height="40" as="geometry" />
        </mxCell>
        <mxCell id="774_Vz0MPOHN9tMvmc2I-9" value="3" style="rounded=1;whiteSpace=wrap;html=1;" vertex="1" parent="1">
          <mxGeometry x="110" y="180" width="50" height="40" as="geometry" />
        </mxCell>
        <mxCell id="774_Vz0MPOHN9tMvmc2I-10" value="2" style="rounded=1;whiteSpace=wrap;html=1;" vertex="1" parent="1">
          <mxGeometry x="160" y="180" width="50" height="40" as="geometry" />
        </mxCell>
        <mxCell id="774_Vz0MPOHN9tMvmc2I-11" value="6" style="rounded=1;whiteSpace=wrap;html=1;" vertex="1" parent="1">
          <mxGeometry x="285" y="180" width="50" height="40" as="geometry" />
        </mxCell>
        <mxCell id="774_Vz0MPOHN9tMvmc2I-12" value="1" style="rounded=1;whiteSpace=wrap;html=1;" vertex="1" parent="1">
          <mxGeometry x="335" y="180" width="50" height="40" as="geometry" />
        </mxCell>
        <mxCell id="774_Vz0MPOHN9tMvmc2I-13" value="5" style="rounded=1;whiteSpace=wrap;html=1;" vertex="1" parent="1">
          <mxGeometry x="35" y="270" width="50" height="40" as="geometry" />
        </mxCell>
        <mxCell id="774_Vz0MPOHN9tMvmc2I-14" value="3" style="rounded=1;whiteSpace=wrap;html=1;" vertex="1" parent="1">
          <mxGeometry x="85" y="270" width="50" height="40" as="geometry" />
        </mxCell>
        <mxCell id="774_Vz0MPOHN9tMvmc2I-15" value="2" style="rounded=1;whiteSpace=wrap;html=1;" vertex="1" parent="1">
          <mxGeometry x="160" y="270" width="50" height="40" as="geometry" />
        </mxCell>
        <mxCell id="774_Vz0MPOHN9tMvmc2I-16" value="6" style="rounded=1;whiteSpace=wrap;html=1;" vertex="1" parent="1">
          <mxGeometry x="270" y="270" width="50" height="40" as="geometry" />
        </mxCell>
        <mxCell id="774_Vz0MPOHN9tMvmc2I-17" value="1" style="rounded=1;whiteSpace=wrap;html=1;" vertex="1" parent="1">
          <mxGeometry x="350" y="270" width="50" height="40" as="geometry" />
        </mxCell>
        <mxCell id="774_Vz0MPOHN9tMvmc2I-18" value="5" style="rounded=1;whiteSpace=wrap;html=1;" vertex="1" parent="1">
          <mxGeometry x="20" y="360" width="50" height="40" as="geometry" />
        </mxCell>
        <mxCell id="774_Vz0MPOHN9tMvmc2I-19" value="3" style="rounded=1;whiteSpace=wrap;html=1;" vertex="1" parent="1">
          <mxGeometry x="90" y="360" width="50" height="40" as="geometry" />
        </mxCell>
        <mxCell id="774_Vz0MPOHN9tMvmc2I-23" value="" style="endArrow=none;dashed=1;html=1;rounded=0;" edge="1" parent="1">
          <mxGeometry width="50" height="50" relative="1" as="geometry">
            <mxPoint x="440" y="40" as="sourcePoint" />
            <mxPoint x="440" y="460.90911865234375" as="targetPoint" />
          </mxGeometry>
        </mxCell>
        <mxCell id="774_Vz0MPOHN9tMvmc2I-24" value="Divide" style="text;html=1;align=center;verticalAlign=middle;whiteSpace=wrap;rounded=0;fontSize=19;fontStyle=1" vertex="1" parent="1">
          <mxGeometry x="170" y="10" width="80" height="30" as="geometry" />
        </mxCell>
        <mxCell id="774_Vz0MPOHN9tMvmc2I-25" value="Conquer" style="text;html=1;align=center;verticalAlign=middle;whiteSpace=wrap;rounded=0;fontSize=19;fontStyle=1" vertex="1" parent="1">
          <mxGeometry x="580" y="10" width="80" height="30" as="geometry" />
        </mxCell>
        <mxCell id="774_Vz0MPOHN9tMvmc2I-26" value="6" style="rounded=1;whiteSpace=wrap;html=1;" vertex="1" parent="1">
          <mxGeometry x="710" y="180" width="50" height="40" as="geometry" />
        </mxCell>
        <mxCell id="774_Vz0MPOHN9tMvmc2I-27" value="1" style="rounded=1;whiteSpace=wrap;html=1;" vertex="1" parent="1">
          <mxGeometry x="790" y="180" width="50" height="40" as="geometry" />
        </mxCell>
        <mxCell id="774_Vz0MPOHN9tMvmc2I-28" value="5" style="rounded=1;whiteSpace=wrap;html=1;" vertex="1" parent="1">
          <mxGeometry x="460" y="80" width="50" height="40" as="geometry" />
        </mxCell>
        <mxCell id="774_Vz0MPOHN9tMvmc2I-29" value="3" style="rounded=1;whiteSpace=wrap;html=1;" vertex="1" parent="1">
          <mxGeometry x="530" y="80" width="50" height="40" as="geometry" />
        </mxCell>
        <mxCell id="774_Vz0MPOHN9tMvmc2I-31" value="3" style="rounded=1;whiteSpace=wrap;html=1;" vertex="1" parent="1">
          <mxGeometry x="470" y="180" width="50" height="40" as="geometry" />
        </mxCell>
        <mxCell id="774_Vz0MPOHN9tMvmc2I-32" value="5" style="rounded=1;whiteSpace=wrap;html=1;" vertex="1" parent="1">
          <mxGeometry x="520" y="180" width="50" height="40" as="geometry" />
        </mxCell>
        <mxCell id="774_Vz0MPOHN9tMvmc2I-33" value="2" style="rounded=1;whiteSpace=wrap;html=1;" vertex="1" parent="1">
          <mxGeometry x="600" y="180" width="50" height="40" as="geometry" />
        </mxCell>
        <mxCell id="774_Vz0MPOHN9tMvmc2I-34" value="1" style="rounded=1;whiteSpace=wrap;html=1;" vertex="1" parent="1">
          <mxGeometry x="730" y="270" width="50" height="40" as="geometry" />
        </mxCell>
        <mxCell id="774_Vz0MPOHN9tMvmc2I-35" value="6" style="rounded=1;whiteSpace=wrap;html=1;" vertex="1" parent="1">
          <mxGeometry x="780" y="270" width="50" height="40" as="geometry" />
        </mxCell>
        <mxCell id="774_Vz0MPOHN9tMvmc2I-37" value="2" style="rounded=1;whiteSpace=wrap;html=1;" vertex="1" parent="1">
          <mxGeometry x="480" y="270" width="50" height="40" as="geometry" />
        </mxCell>
        <mxCell id="774_Vz0MPOHN9tMvmc2I-39" value="3" style="rounded=1;whiteSpace=wrap;html=1;" vertex="1" parent="1">
          <mxGeometry x="530" y="270" width="50" height="40" as="geometry" />
        </mxCell>
        <mxCell id="774_Vz0MPOHN9tMvmc2I-40" value="5" style="rounded=1;whiteSpace=wrap;html=1;" vertex="1" parent="1">
          <mxGeometry x="580" y="270" width="50" height="40" as="geometry" />
        </mxCell>
        <mxCell id="774_Vz0MPOHN9tMvmc2I-41" value="1" style="rounded=1;whiteSpace=wrap;html=1;" vertex="1" parent="1">
          <mxGeometry x="520" y="360" width="50" height="40" as="geometry" />
        </mxCell>
        <mxCell id="774_Vz0MPOHN9tMvmc2I-42" value="2" style="rounded=1;whiteSpace=wrap;html=1;" vertex="1" parent="1">
          <mxGeometry x="570" y="360" width="50" height="40" as="geometry" />
        </mxCell>
        <mxCell id="774_Vz0MPOHN9tMvmc2I-43" value="3" style="rounded=1;whiteSpace=wrap;html=1;" vertex="1" parent="1">
          <mxGeometry x="620" y="360" width="50" height="40" as="geometry" />
        </mxCell>
        <mxCell id="774_Vz0MPOHN9tMvmc2I-44" value="5" style="rounded=1;whiteSpace=wrap;html=1;" vertex="1" parent="1">
          <mxGeometry x="670" y="360" width="50" height="40" as="geometry" />
        </mxCell>
        <mxCell id="774_Vz0MPOHN9tMvmc2I-45" value="6" style="rounded=1;whiteSpace=wrap;html=1;" vertex="1" parent="1">
          <mxGeometry x="720" y="360" width="50" height="40" as="geometry" />
        </mxCell>
      </root>
    </mxGraphModel>
  </diagram>
</mxfile>
